<mxfile host="app.diagrams.net" modified="2024-02-09T17:57:40.999Z" agent="Mozilla/5.0 (Windows NT 10.0; Win64; x64) AppleWebKit/537.36 (KHTML, like Gecko) Chrome/121.0.0.0 Safari/537.36" etag="tvi2IB6OaiBZoGZFbTur" version="23.1.2" type="device">
  <diagram name="Page-1" id="8rtoGABj7xiSw3J2CzfI">
    <mxGraphModel dx="2924" dy="1140" grid="1" gridSize="10" guides="1" tooltips="1" connect="1" arrows="1" fold="1" page="1" pageScale="1" pageWidth="850" pageHeight="1100" math="0" shadow="0">
      <root>
        <mxCell id="0" />
        <mxCell id="1" parent="0" />
        <mxCell id="8B-LfOD5TMWrh6I8T330-46" value="" style="rounded=0;whiteSpace=wrap;html=1;gradientColor=none;" vertex="1" parent="1">
          <mxGeometry x="530" y="680" width="145" height="210" as="geometry" />
        </mxCell>
        <mxCell id="8B-LfOD5TMWrh6I8T330-39" value="" style="rounded=0;whiteSpace=wrap;html=1;opacity=40;fillColor=#E6E6E6;strokeColor=default;dashed=1;dashPattern=1 2;" vertex="1" parent="1">
          <mxGeometry x="-190" y="430" width="170" height="450" as="geometry" />
        </mxCell>
        <mxCell id="8B-LfOD5TMWrh6I8T330-38" value="" style="rounded=0;whiteSpace=wrap;html=1;opacity=40;fillColor=#E6E6E6;strokeColor=default;dashed=1;dashPattern=1 2;" vertex="1" parent="1">
          <mxGeometry x="315" y="400" width="170" height="210" as="geometry" />
        </mxCell>
        <mxCell id="8B-LfOD5TMWrh6I8T330-30" value="" style="rounded=0;whiteSpace=wrap;html=1;opacity=40;fillColor=#E6E6E6;strokeColor=default;dashed=1;dashPattern=1 2;" vertex="1" parent="1">
          <mxGeometry y="220" width="280" height="680" as="geometry" />
        </mxCell>
        <mxCell id="8B-LfOD5TMWrh6I8T330-9" style="edgeStyle=orthogonalEdgeStyle;rounded=0;orthogonalLoop=1;jettySize=auto;html=1;exitX=0.5;exitY=1;exitDx=0;exitDy=0;" edge="1" parent="1" source="8B-LfOD5TMWrh6I8T330-1" target="8B-LfOD5TMWrh6I8T330-2">
          <mxGeometry relative="1" as="geometry" />
        </mxCell>
        <mxCell id="8B-LfOD5TMWrh6I8T330-1" value="Start Page" style="rounded=1;whiteSpace=wrap;html=1;" vertex="1" parent="1">
          <mxGeometry x="110" y="250" width="120" height="60" as="geometry" />
        </mxCell>
        <mxCell id="8B-LfOD5TMWrh6I8T330-10" style="edgeStyle=orthogonalEdgeStyle;rounded=0;orthogonalLoop=1;jettySize=auto;html=1;exitX=0.5;exitY=1;exitDx=0;exitDy=0;entryX=0.5;entryY=0;entryDx=0;entryDy=0;" edge="1" parent="1" source="8B-LfOD5TMWrh6I8T330-2" target="8B-LfOD5TMWrh6I8T330-3">
          <mxGeometry relative="1" as="geometry" />
        </mxCell>
        <mxCell id="8B-LfOD5TMWrh6I8T330-2" value="Setup Page" style="rounded=1;whiteSpace=wrap;html=1;" vertex="1" parent="1">
          <mxGeometry x="110" y="370" width="120" height="60" as="geometry" />
        </mxCell>
        <mxCell id="8B-LfOD5TMWrh6I8T330-8" style="edgeStyle=orthogonalEdgeStyle;rounded=0;orthogonalLoop=1;jettySize=auto;html=1;exitX=0.75;exitY=1;exitDx=0;exitDy=0;entryX=0.75;entryY=0;entryDx=0;entryDy=0;" edge="1" parent="1" source="8B-LfOD5TMWrh6I8T330-3" target="8B-LfOD5TMWrh6I8T330-5">
          <mxGeometry relative="1" as="geometry" />
        </mxCell>
        <mxCell id="8B-LfOD5TMWrh6I8T330-12" style="edgeStyle=orthogonalEdgeStyle;rounded=0;orthogonalLoop=1;jettySize=auto;html=1;exitX=0.5;exitY=1;exitDx=0;exitDy=0;entryX=1;entryY=0.5;entryDx=0;entryDy=0;" edge="1" parent="1" source="8B-LfOD5TMWrh6I8T330-3" target="8B-LfOD5TMWrh6I8T330-4">
          <mxGeometry relative="1" as="geometry" />
        </mxCell>
        <mxCell id="8B-LfOD5TMWrh6I8T330-3" value="Test Page" style="rounded=1;whiteSpace=wrap;html=1;" vertex="1" parent="1">
          <mxGeometry x="110" y="520" width="120" height="60" as="geometry" />
        </mxCell>
        <mxCell id="8B-LfOD5TMWrh6I8T330-7" style="edgeStyle=orthogonalEdgeStyle;rounded=0;orthogonalLoop=1;jettySize=auto;html=1;exitX=0.5;exitY=0;exitDx=0;exitDy=0;entryX=0;entryY=0.75;entryDx=0;entryDy=0;" edge="1" parent="1" source="8B-LfOD5TMWrh6I8T330-4" target="8B-LfOD5TMWrh6I8T330-3">
          <mxGeometry relative="1" as="geometry" />
        </mxCell>
        <mxCell id="8B-LfOD5TMWrh6I8T330-4" value="Practice End Page" style="rounded=1;whiteSpace=wrap;html=1;" vertex="1" parent="1">
          <mxGeometry x="20" y="620" width="120" height="60" as="geometry" />
        </mxCell>
        <mxCell id="8B-LfOD5TMWrh6I8T330-5" value="Exercise End Page" style="rounded=1;whiteSpace=wrap;html=1;" vertex="1" parent="1">
          <mxGeometry x="110" y="800" width="120" height="60" as="geometry" />
        </mxCell>
        <mxCell id="8B-LfOD5TMWrh6I8T330-13" value="TrialData" style="rhombus;whiteSpace=wrap;html=1;" vertex="1" parent="1">
          <mxGeometry x="160" y="710" width="80" height="60" as="geometry" />
        </mxCell>
        <mxCell id="8B-LfOD5TMWrh6I8T330-14" value="TrialSettings" style="rhombus;whiteSpace=wrap;html=1;" vertex="1" parent="1">
          <mxGeometry x="125" y="440" width="90" height="60" as="geometry" />
        </mxCell>
        <mxCell id="8B-LfOD5TMWrh6I8T330-15" value="AudioManager" style="rounded=0;whiteSpace=wrap;html=1;" vertex="1" parent="1">
          <mxGeometry x="-165" y="480" width="120" height="60" as="geometry" />
        </mxCell>
        <mxCell id="8B-LfOD5TMWrh6I8T330-16" value="Exercise Store" style="shape=cylinder3;whiteSpace=wrap;html=1;boundedLbl=1;backgroundOutline=1;size=15;" vertex="1" parent="1">
          <mxGeometry x="-150" y="560" width="90" height="80" as="geometry" />
        </mxCell>
        <mxCell id="8B-LfOD5TMWrh6I8T330-17" value="File Manager" style="rounded=0;whiteSpace=wrap;html=1;" vertex="1" parent="1">
          <mxGeometry x="-165" y="800" width="120" height="60" as="geometry" />
        </mxCell>
        <mxCell id="8B-LfOD5TMWrh6I8T330-27" value="" style="endArrow=none;dashed=1;html=1;rounded=0;exitX=1;exitY=0.5;exitDx=0;exitDy=0;entryX=0;entryY=0.25;entryDx=0;entryDy=0;" edge="1" parent="1" source="8B-LfOD5TMWrh6I8T330-15" target="8B-LfOD5TMWrh6I8T330-3">
          <mxGeometry width="50" height="50" relative="1" as="geometry">
            <mxPoint x="400" y="610" as="sourcePoint" />
            <mxPoint x="450" y="560" as="targetPoint" />
          </mxGeometry>
        </mxCell>
        <mxCell id="8B-LfOD5TMWrh6I8T330-28" value="" style="endArrow=none;dashed=1;html=1;rounded=0;entryX=0;entryY=0.25;entryDx=0;entryDy=0;exitX=1;exitY=0;exitDx=0;exitDy=27.5;exitPerimeter=0;" edge="1" parent="1" source="8B-LfOD5TMWrh6I8T330-16" target="8B-LfOD5TMWrh6I8T330-3">
          <mxGeometry width="50" height="50" relative="1" as="geometry">
            <mxPoint x="-280" y="590" as="sourcePoint" />
            <mxPoint x="-230" y="540" as="targetPoint" />
          </mxGeometry>
        </mxCell>
        <mxCell id="8B-LfOD5TMWrh6I8T330-29" value="" style="endArrow=none;dashed=1;html=1;rounded=0;exitX=1;exitY=0.5;exitDx=0;exitDy=0;" edge="1" parent="1" source="8B-LfOD5TMWrh6I8T330-17" target="8B-LfOD5TMWrh6I8T330-5">
          <mxGeometry width="50" height="50" relative="1" as="geometry">
            <mxPoint x="-380" y="800" as="sourcePoint" />
            <mxPoint x="-330" y="750" as="targetPoint" />
          </mxGeometry>
        </mxCell>
        <mxCell id="8B-LfOD5TMWrh6I8T330-32" value="Participant Exercise Page" style="rounded=1;whiteSpace=wrap;html=1;" vertex="1" parent="1">
          <mxGeometry x="340" y="520" width="120" height="60" as="geometry" />
        </mxCell>
        <mxCell id="8B-LfOD5TMWrh6I8T330-33" value="" style="endArrow=none;html=1;rounded=0;exitX=1;exitY=0.5;exitDx=0;exitDy=0;entryX=0;entryY=0.5;entryDx=0;entryDy=0;" edge="1" parent="1" source="8B-LfOD5TMWrh6I8T330-3" target="8B-LfOD5TMWrh6I8T330-32">
          <mxGeometry width="50" height="50" relative="1" as="geometry">
            <mxPoint x="460" y="670" as="sourcePoint" />
            <mxPoint x="540" y="690" as="targetPoint" />
          </mxGeometry>
        </mxCell>
        <mxCell id="8B-LfOD5TMWrh6I8T330-34" value="Participant" style="shape=umlActor;verticalLabelPosition=bottom;verticalAlign=top;html=1;outlineConnect=0;" vertex="1" parent="1">
          <mxGeometry x="385" y="420" width="30" height="60" as="geometry" />
        </mxCell>
        <mxCell id="8B-LfOD5TMWrh6I8T330-37" value="Facilitator" style="shape=umlActor;verticalLabelPosition=bottom;verticalAlign=top;html=1;outlineConnect=0;" vertex="1" parent="1">
          <mxGeometry x="20" y="230" width="30" height="60" as="geometry" />
        </mxCell>
        <mxCell id="8B-LfOD5TMWrh6I8T330-40" value="Back-End" style="text;html=1;strokeColor=none;fillColor=none;align=center;verticalAlign=middle;whiteSpace=wrap;rounded=0;" vertex="1" parent="1">
          <mxGeometry x="-180" y="435" width="60" height="30" as="geometry" />
        </mxCell>
        <mxCell id="8B-LfOD5TMWrh6I8T330-41" value="Page" style="rounded=1;whiteSpace=wrap;html=1;" vertex="1" parent="1">
          <mxGeometry x="595" y="690" width="60" height="30" as="geometry" />
        </mxCell>
        <mxCell id="8B-LfOD5TMWrh6I8T330-42" value="Object" style="rhombus;whiteSpace=wrap;html=1;" vertex="1" parent="1">
          <mxGeometry x="595" y="730" width="60" height="40" as="geometry" />
        </mxCell>
        <mxCell id="8B-LfOD5TMWrh6I8T330-43" value="Class" style="rounded=0;whiteSpace=wrap;html=1;" vertex="1" parent="1">
          <mxGeometry x="600" y="780" width="50" height="30" as="geometry" />
        </mxCell>
        <mxCell id="8B-LfOD5TMWrh6I8T330-44" value="Data" style="shape=cylinder3;whiteSpace=wrap;html=1;boundedLbl=1;backgroundOutline=1;size=15;" vertex="1" parent="1">
          <mxGeometry x="605" y="820" width="40" height="50" as="geometry" />
        </mxCell>
        <mxCell id="8B-LfOD5TMWrh6I8T330-45" value="Key:" style="text;html=1;strokeColor=none;fillColor=none;align=center;verticalAlign=middle;whiteSpace=wrap;rounded=0;" vertex="1" parent="1">
          <mxGeometry x="530" y="700" width="60" height="30" as="geometry" />
        </mxCell>
      </root>
    </mxGraphModel>
  </diagram>
</mxfile>
